<?xml version="1.0" encoding="utf-8"?>
<!-- Generator: Adobe Illustrator 21.0.0, SVG Export Plug-In . SVG Version: 6.00 Build 0)  -->
<svg version="1.1" id="Layer_1" xmlns="http://www.w3.org/2000/svg" xmlns:xlink="http://www.w3.org/1999/xlink" x="0px" y="0px"
	 viewBox="0 0 48 48" style="enable-background:new 0 0 48 48;" xml:space="preserve">
<style type="text/css">
	.st0{fill:#FFFFFF;}
	.icon{fill:#BEBEBE}
</style>
<path class="icon" d="M38,23c0.7,0,1.4,0.1,2,0.1V1L1,40h22.1C23,39.3,23,38.7,23,38C23,29.7,29.7,23,38,23z M45.4,39c0-0.3,0.1-0.6,0.1-1
	c0-0.3,0-0.7-0.1-1l2.1-1.7c0.2-0.2,0.2-0.4,0.1-0.6l-2-3.5C45.5,31,45.2,31,45,31l-2.5,1c-0.5-0.4-1.1-0.7-1.7-1l-0.4-2.6
	c0-0.2-0.2-0.4-0.5-0.4h-4c-0.2,0-0.5,0.2-0.5,0.4L35,31c-0.6,0.2-1.2,0.6-1.7,1l-2.5-1c-0.2-0.1-0.5,0-0.6,0.2l-2,3.5
	c-0.1,0.2-0.1,0.5,0.1,0.6l2.1,1.7c0,0.3-0.1,0.7-0.1,1s0,0.7,0.1,1l-2.1,1.7c-0.2,0.2-0.2,0.4-0.1,0.6l2,3.5
	c0.1,0.2,0.4,0.3,0.6,0.2l2.5-1c0.5,0.4,1.1,0.7,1.7,1l0.4,2.7c0,0.2,0.2,0.4,0.5,0.4h4c0.2,0,0.5-0.2,0.5-0.4l0.4-2.7
	c0.6-0.2,1.2-0.6,1.7-1l2.5,1c0.2,0.1,0.5,0,0.6-0.2l2-3.5c0.1-0.2,0.1-0.5-0.1-0.6C47.5,40.6,45.4,39,45.4,39z M38,41
	c-1.7,0-3-1.3-3-3s1.3-3,3-3s3,1.3,3,3S39.6,41,38,41z"/>
<polyline class="icon" points="1,1 1,40 40,1 "/>
<path class="st0" d="M32.8,8.2H6.5v-2h26.3V8.2z"/>
<path class="st0" d="M32.8,14.2H6.5v-2h26.3V14.2z"/>
<path class="st0" d="M32.8,20.2H6.5v-2h26.3V20.2z"/>
<path class="st0" d="M20.5,26h-14v-1.9h14V26z"/>
</svg>
